<?xml version="1.0" encoding="UTF-8" standalone="no"?>
<!-- Generator: Adobe Illustrator 18.0.0, SVG Export Plug-In . SVG Version: 6.00 Build 0)  -->

<svg
   xmlns:dc="http://purl.org/dc/elements/1.1/"
   xmlns:cc="http://creativecommons.org/ns#"
   xmlns:rdf="http://www.w3.org/1999/02/22-rdf-syntax-ns#"
   xmlns:svg="http://www.w3.org/2000/svg"
   xmlns="http://www.w3.org/2000/svg"
   xmlns:sodipodi="http://sodipodi.sourceforge.net/DTD/sodipodi-0.dtd"
   xmlns:inkscape="http://www.inkscape.org/namespaces/inkscape"
   version="1.1"
   id="Capa_1"
   x="0px"
   y="0px"
   viewBox="0 0 485.932 485.932"
   style="enable-background:new 0 0 485.932 485.932;"
   xml:space="preserve"
   sodipodi:docname="truck.svg"
   inkscape:version="0.92.3 (2405546, 2018-03-11)"><metadata
   id="metadata45"><rdf:RDF><cc:Work
       rdf:about=""><dc:format>image/svg+xml</dc:format><dc:type
         rdf:resource="http://purl.org/dc/dcmitype/StillImage" /><dc:title></dc:title></cc:Work></rdf:RDF></metadata><defs
   id="defs43" /><sodipodi:namedview
   pagecolor="#ffffff"
   bordercolor="#666666"
   borderopacity="1"
   objecttolerance="10"
   gridtolerance="10"
   guidetolerance="10"
   inkscape:pageopacity="0"
   inkscape:pageshadow="2"
   inkscape:window-width="1299"
   inkscape:window-height="713"
   id="namedview41"
   showgrid="false"
   inkscape:pagecheckerboard="true"
   inkscape:zoom="0.48566465"
   inkscape:cx="242.966"
   inkscape:cy="242.966"
   inkscape:window-x="67"
   inkscape:window-y="27"
   inkscape:window-maximized="1"
   inkscape:current-layer="Capa_1" />
<g
   id="g8"
   transform="translate(2.0590339,-14.413237)">
	<path
   d="m 372.997,261.44 c -1.506,-0.163 -3.034,-0.246 -4.541,-0.246 -21.399,0 -39.271,16.063 -41.571,37.361 -2.479,22.945 14.173,43.632 37.122,46.113 1.507,0.163 3.036,0.246 4.544,0.246 0.001,0 0,0 0.001,0 21.396,0 39.268,-16.061 41.568,-37.359 2.479,-22.944 -14.174,-43.631 -37.123,-46.115 z m 23.205,44.612 c -1.531,14.175 -13.418,24.863 -27.65,24.863 -1.007,0 -2.03,-0.056 -3.038,-0.164 -15.275,-1.652 -26.359,-15.42 -24.708,-30.691 1.531,-14.176 13.419,-24.865 27.652,-24.865 1.006,0 2.028,0.056 3.035,0.164 15.274,1.654 26.358,15.422 24.709,30.693 z"
   id="path2"
   inkscape:connector-curvature="0" />
	<path
   d="m 131.851,261.19 c -4.672,0 -9.297,0.783 -13.745,2.329 -10.562,3.671 -19.062,11.233 -23.934,21.295 -4.873,10.063 -5.535,21.421 -1.863,31.982 5.848,16.821 21.738,28.123 39.54,28.124 0.001,0 0.001,0 0.001,0 4.671,0 9.294,-0.783 13.742,-2.328 10.562,-3.672 19.062,-11.235 23.934,-21.297 4.873,-10.063 5.534,-21.421 1.863,-31.98 -5.845,-16.823 -21.734,-28.125 -39.538,-28.125 z m 25.076,54.003 c -3.243,6.696 -8.9,11.73 -15.929,14.174 -2.966,1.03 -6.043,1.553 -9.146,1.553 h -0.001 c -11.849,0 -22.425,-7.524 -26.318,-18.722 -2.443,-7.027 -2.003,-14.586 1.24,-21.281 3.243,-6.696 8.9,-11.73 15.93,-14.173 2.966,-1.031 6.045,-1.554 9.149,-1.554 11.849,0 22.424,7.522 26.315,18.721 2.442,7.028 2.002,14.586 -1.24,21.282 z"
   id="path4"
   inkscape:connector-curvature="0" />
	<path
   d="m 484.435,100.601 c -1.327,-1.688 -3.356,-2.674 -5.503,-2.674 H 290.036 c -3.866,0 -7,3.134 -7,7 l -0.022,18.514 H 7 c -3.866,0 -7,3.134 -7,7 v 23.443 c 0,2.523 1.358,4.852 3.555,6.094 l 107.438,60.735 c -16.709,4.231 -31.897,13.483 -43.394,26.775 -14.845,17.163 -22.117,39.078 -20.478,61.708 1.64,22.631 11.995,43.269 29.158,58.111 15.431,13.346 35.153,20.695 55.533,20.697 0.003,0 10e-4,0 0.005,0 24.702,0 48.135,-10.711 64.283,-29.382 7.016,-8.111 12.316,-17.292 15.808,-27.101 h 76.543 c 4.869,13.761 13.235,26.092 24.591,35.878 15.414,13.286 35.097,20.604 55.424,20.605 0.002,0 0.003,0 0.004,0 24.76,0 48.225,-10.749 64.378,-29.49 7.275,-8.441 12.711,-18.03 16.173,-28.279 h 21.788 c 3.866,0 7,-3.134 7,-7 V 215.196 c 0,-3.866 -3.134,-7 -7,-7 h -26.773 v -65.393 h 27.391 c 3.229,0 6.04,-2.209 6.802,-5.347 l 7.504,-30.877 c 0.508,-2.086 0.029,-4.29 -1.298,-5.978 z M 185.511,349.465 c -13.489,15.597 -33.062,24.541 -53.698,24.54 -17.018,-10e-4 -33.488,-6.141 -46.376,-17.287 -14.335,-12.397 -22.983,-29.632 -24.352,-48.532 -1.37,-18.901 4.704,-37.204 17.103,-51.539 13.489,-15.596 33.063,-24.541 53.702,-24.541 17.016,0 33.485,6.139 46.374,17.286 14.334,12.396 22.982,29.633 24.35,48.534 1.369,18.901 -4.705,37.205 -17.103,51.539 z m 236.734,-0.091 c -13.493,15.654 -33.094,24.632 -53.777,24.631 -16.974,-10e-4 -33.412,-6.112 -46.285,-17.209 -14.355,-12.371 -23.033,-29.593 -24.435,-48.491 -1.401,-18.898 4.641,-37.211 17.014,-51.565 13.494,-15.655 33.097,-24.633 53.782,-24.633 16.972,0 33.408,6.11 46.282,17.207 14.355,12.371 23.032,29.593 24.434,48.492 1.4,18.899 -4.642,37.213 -17.015,51.568 z M 463.81,222.196 v 94.039 h -11.377 c 0.987,-6.364 1.276,-12.883 0.788,-19.465 -1.677,-22.63 -12.067,-43.25 -29.255,-58.063 -8.669,-7.472 -18.69,-13.056 -29.414,-16.512 h 69.258 z m -80.481,-14 V 171.31 l 46.708,-18.906 v 55.793 h -46.708 z m 82.596,-79.392 H 357.372 c -3.866,0 -7,3.134 -7,7 v 72.234 c -21.413,4.071 -40.812,15.238 -55.14,31.863 -7.136,8.277 -12.748,17.66 -16.7,27.687 l -37.337,-22.482 c -1.531,-0.922 -3.355,-1.223 -5.102,-0.843 l -36.22,7.895 c -3.626,-4.826 -7.776,-9.313 -12.451,-13.355 -14.657,-12.676 -33.186,-19.93 -52.471,-20.627 L 14,149.8 v -12.36 h 53.966 v 26.515 c 0,3.866 3.134,7 7,7 3.866,0 7,-3.134 7,-7 V 137.44 h 21.841 v 44.526 c 0,3.866 3.134,7 7,7 3.866,0 7,-3.134 7,-7 V 137.44 h 21.841 v 60.879 c 0,3.866 3.134,7 7,7 3.866,0 7,-3.134 7,-7 V 137.44 h 21.841 v 72.099 c 0,3.866 3.134,7 7,7 3.866,0 7,-3.134 7,-7 V 137.44 h 21.841 v 88.794 c 0,3.866 3.134,7 7,7 3.866,0 7,-3.134 7,-7 V 137.44 h 21.841 v 88.794 c 0,3.866 3.134,7 7,7 3.866,0 7,-3.134 7,-7 V 137.44 h 21.841 v 75.099 c 0,3.866 3.134,7 7,7 3.866,0 7,-3.134 7,-7 l 0.022,-100.612 h 172.991 z"
   id="path6"
   inkscape:connector-curvature="0" />
</g>
<g
   id="g10">
</g>
<g
   id="g12">
</g>
<g
   id="g14">
</g>
<g
   id="g16">
</g>
<g
   id="g18">
</g>
<g
   id="g20">
</g>
<g
   id="g22">
</g>
<g
   id="g24">
</g>
<g
   id="g26">
</g>
<g
   id="g28">
</g>
<g
   id="g30">
</g>
<g
   id="g32">
</g>
<g
   id="g34">
</g>
<g
   id="g36">
</g>
<g
   id="g38">
</g>
</svg>